<?xml version="1.0" encoding="utf-8"?>
<svg viewBox="0 0 271.125 302.522" xmlns="http://www.w3.org/2000/svg">
  <g transform="matrix(1, 0, 0, 1, 144.129198, 86.03128)">
    <path d="M 160.596 204.955 C 137.319 204.955 123.158 199.586 114.907 191.97 C 106.623 184.323 104.179 174.303 104.179 165.234 C 104.179 164.343 104.586 163.365 105.21 162.704 C 105.832 162.046 106.82 161.58 107.859 161.554 L 121.64 161.554 C 122.52 161.569 123.425 161.883 124.023 162.406 C 124.624 162.932 125.014 163.766 125.053 164.655 C 126.099 171.623 128.064 176.622 133.243 180.021 C 138.466 183.448 146.865 185.14 160.861 185.14 C 171.953 185.14 179.779 183.901 184.875 181.19 C 189.924 178.504 192.163 174.519 192.163 168.679 C 192.163 166.982 192.011 165.501 191.264 164.089 C 190.509 162.662 189.206 161.389 186.771 160.147 C 181.823 157.624 172.573 155.524 155.246 153.806 C 140.779 152.345 128.942 150.005 120.754 145.125 C 112.539 140.229 107.889 132.636 107.889 120.977 C 107.889 110.128 112.513 101.355 120.887 95.426 C 129.24 89.512 141.452 86.291 156.621 86.291 C 173.638 86.291 186.446 89.243 195.202 95.392 C 203.978 101.555 208.772 111.08 209.858 123.892 C 209.845 124.766 209.538 125.7 208.979 126.555 L 208.952 126.596 L 208.917 126.631 C 208.349 127.192 207.377 127.795 206.443 127.837 L 192.662 127.837 C 191.907 127.82 191.08 127.507 190.492 127.03 C 189.905 126.553 189.428 125.811 189.259 125.059 C 187.698 117.845 184.951 113.199 179.889 110.246 C 174.799 107.277 167.447 106.107 156.621 106.107 C 144.505 106.107 137.843 108.176 134.136 111.038 C 130.49 113.852 129.825 117.315 129.825 120.447 C 129.825 122.335 130.019 123.784 130.804 125.069 C 131.595 126.365 132.926 127.416 135.349 128.433 C 140.268 130.5 149.278 132.144 165.696 134.262 C 182.014 136.386 194.113 138.992 202.102 143.939 C 210.126 148.908 214.069 156.377 214.098 167.89 C 213.937 179.664 209.009 189.033 199.903 195.326 C 190.821 201.604 177.485 204.955 160.596 204.955 Z M 199.335 194.504 C 208.25 188.342 212.994 179.426 213.098 167.881 C 213.127 156.605 209.385 149.626 201.575 144.789 C 193.729 139.931 181.845 137.37 165.567 135.254 C 149.124 133.132 139.98 131.463 134.962 129.355 C 132.416 128.286 130.832 127.034 129.95 125.59 C 129.061 124.133 128.825 122.402 128.825 120.447 C 128.825 117.219 129.618 113.262 133.525 110.246 C 137.37 107.278 144.356 105.107 156.621 105.107 C 167.526 105.107 175.147 106.322 180.393 109.382 C 185.666 112.458 188.617 117.484 190.236 124.846 C 190.331 125.419 190.65 125.87 191.123 126.254 C 191.595 126.638 192.093 126.855 192.663 126.837 L 206.443 126.837 C 207.099 126.879 207.683 126.457 208.175 125.958 C 208.656 125.24 208.866 124.623 208.859 123.917 C 207.822 111.298 203.211 102.238 194.628 96.21 C 186.026 90.169 173.526 87.291 156.621 87.291 C 141.579 87.291 129.675 90.43 121.465 96.242 C 113.276 102.04 108.889 110.361 108.889 120.977 C 108.889 132.375 113.25 139.489 121.266 144.266 C 129.31 149.06 140.926 151.357 155.346 152.811 C 172.734 154.539 182.168 156.678 187.225 159.256 C 189.792 160.566 191.321 162.059 192.148 163.621 C 192.983 165.199 193.163 166.931 193.163 168.679 C 193.163 174.764 190.631 179.26 185.345 182.073 C 180.105 184.861 172.031 186.14 160.861 186.14 C 146.766 186.14 138.073 184.386 132.695 180.857 C 127.274 177.299 125.135 171.855 124.06 164.779 L 124.054 164.734 L 124.055 164.704 C 124.081 164.021 123.823 163.56 123.364 163.159 C 122.902 162.755 122.349 162.539 121.64 162.554 L 107.859 162.554 C 107.043 162.527 106.441 162.857 105.937 163.391 C 105.435 163.923 105.179 164.535 105.179 165.234 C 105.179 174.185 107.505 183.776 115.586 191.235 C 123.699 198.724 137.496 203.955 160.596 203.955 C 177.364 203.955 190.397 200.682 199.335 194.504 Z" style="fill: none;"/>
    <path d="M 160.596 204.955 C 137.319 204.955 123.158 199.586 114.907 191.97 C 106.623 184.323 104.179 174.303 104.179 165.234 C 104.179 164.343 104.586 163.365 105.21 162.704 C 105.832 162.046 106.82 161.58 107.859 161.554 L 121.64 161.554 C 122.52 161.569 123.425 161.883 124.023 162.406 C 124.624 162.932 125.014 163.766 125.053 164.655 C 126.099 171.623 128.064 176.622 133.243 180.021 C 138.466 183.448 146.865 185.14 160.861 185.14 C 171.953 185.14 179.779 183.901 184.875 181.19 C 189.924 178.504 192.163 174.519 192.163 168.679 C 192.163 166.982 192.011 165.501 191.264 164.089 C 190.509 162.662 189.206 161.389 186.771 160.147 C 181.823 157.624 172.573 155.524 155.246 153.806 C 140.779 152.345 128.942 150.005 120.754 145.125 C 112.539 140.229 107.889 132.636 107.889 120.977 C 107.889 110.128 112.513 101.355 120.887 95.426 C 129.24 89.512 141.452 86.291 156.621 86.291 C 173.638 86.291 186.446 89.243 195.202 95.392 C 203.978 101.555 208.772 111.08 209.858 123.892 C 209.845 124.766 209.538 125.7 208.979 126.555 L 208.952 126.596 L 208.917 126.631 C 208.349 127.192 207.377 127.795 206.443 127.837 L 192.662 127.837 C 191.907 127.82 191.08 127.507 190.492 127.03 C 189.905 126.553 189.428 125.811 189.259 125.059 C 187.698 117.845 184.951 113.199 179.889 110.246 C 174.799 107.277 167.447 106.107 156.621 106.107 C 144.505 106.107 137.843 108.176 134.136 111.038 C 130.49 113.852 129.825 117.315 129.825 120.447 C 129.825 122.335 130.019 123.784 130.804 125.069 C 131.595 126.365 132.926 127.416 135.349 128.433 C 140.268 130.5 149.278 132.144 165.696 134.262 C 182.014 136.386 194.113 138.992 202.102 143.939 C 210.126 148.908 214.069 156.377 214.098 167.89 C 213.937 179.664 209.009 189.033 199.903 195.326 C 190.821 201.604 177.485 204.955 160.596 204.955 Z M 199.335 194.504 C 208.25 188.342 212.994 179.426 213.098 167.881 C 213.127 156.605 209.385 149.626 201.575 144.789 C 193.729 139.931 181.845 137.37 165.567 135.254 C 149.124 133.132 139.98 131.463 134.962 129.355 C 132.416 128.286 130.832 127.034 129.95 125.59 C 129.061 124.133 128.825 122.402 128.825 120.447 C 128.825 117.219 129.618 113.262 133.525 110.246 C 137.37 107.278 144.356 105.107 156.621 105.107 C 167.526 105.107 175.147 106.322 180.393 109.382 C 185.666 112.458 188.617 117.484 190.236 124.846 C 190.331 125.419 190.65 125.87 191.123 126.254 C 191.595 126.638 192.093 126.855 192.663 126.837 L 206.443 126.837 C 207.099 126.879 207.683 126.457 208.175 125.958 C 208.656 125.24 208.866 124.623 208.859 123.917 C 207.822 111.298 203.211 102.238 194.628 96.21 C 186.026 90.169 173.526 87.291 156.621 87.291 C 141.579 87.291 129.675 90.43 121.465 96.242 C 113.276 102.04 108.889 110.361 108.889 120.977 C 108.889 132.375 113.25 139.489 121.266 144.266 C 129.31 149.06 140.926 151.357 155.346 152.811 C 172.734 154.539 182.168 156.678 187.225 159.256 C 189.792 160.566 191.321 162.059 192.148 163.621 C 192.983 165.199 193.163 166.931 193.163 168.679 C 193.163 174.764 190.631 179.26 185.345 182.073 C 180.105 184.861 172.031 186.14 160.861 186.14 C 146.766 186.14 138.073 184.386 132.695 180.857 C 127.274 177.299 125.135 171.855 124.06 164.779 L 124.054 164.734 L 124.055 164.704 C 124.081 164.021 123.823 163.56 123.364 163.159 C 122.902 162.755 122.349 162.539 121.64 162.554 L 107.859 162.554 C 107.043 162.527 106.441 162.857 105.937 163.391 C 105.435 163.923 105.179 164.535 105.179 165.234 C 105.179 174.185 107.505 183.776 115.586 191.235 C 123.699 198.724 137.496 203.955 160.596 203.955 C 177.364 203.955 190.397 200.682 199.335 194.504 Z" style="fill: none;"/>
  </g>
  <path d="M 62.5 108.476 L 62.477 99.269 C 62.477 99.269 61.194 90.381 81.734 90.381 C 94.91 90.381 99.374 94.419 100.856 97.537 C 101.39 98.091 101.738 98.844 101.738 99.712 L 101.738 220.292 C 101.738 241.228 90.342 253.418 70.467 253.418 C 64.371 253.418 59.601 253.418 46.086 246.793 L 18.26 230.893 C 11.369 226.917 7.129 219.497 7.129 211.547 L 7.129 89.377 C 7.129 81.427 11.369 74.006 18.26 70.031 L 123.999 8.814 C 130.624 5.104 139.634 5.104 146.26 8.814 L 251.999 70.031 C 258.889 74.006 263.129 81.427 263.129 89.377 L 263.129 211.547 C 263.129 219.497 258.889 226.917 251.999 230.893 L 146.26 292.11 C 142.814 293.7 138.839 294.495 135.129 294.495 C 131.154 294.495 127.444 293.435 123.999 291.58 L 88.752 270.644 C 83.452 267.729 86.102 266.669 87.692 266.139 C 94.848 263.754 96.173 263.224 103.593 258.984 C 104.388 258.454 105.448 258.719 106.243 259.249 L 133.274 275.414 C 134.334 275.944 135.659 275.944 136.454 275.414 L 242.193 214.197 C 243.253 213.667 243.783 212.607 243.783 211.282 L 243.783 89.112 C 243.783 87.787 243.253 86.727 242.193 86.197 L 136.454 25.245 C 135.394 24.715 134.069 24.715 133.274 25.245 L 27.535 86.197 C 26.475 86.727 25.945 88.052 25.945 89.112 L 25.945 211.282 C 25.945 212.342 26.475 213.667 27.535 214.197 L 56.421 230.893 C 72.057 238.843 81.862 229.568 81.862 220.292 L 81.862 108.476 Z M 67.4 100.091 C 67.4 102.037 68.976 103.61 70.926 103.61 C 72.877 103.61 74.453 102.037 74.453 100.091 C 74.453 98.145 72.877 96.573 70.926 96.573 C 68.976 96.573 67.4 98.145 67.4 100.091 Z" style="fill: rgb(54, 105, 148);"/>
  <path d="M 227.793 134.811 C 229.744 134.811 231.32 133.239 231.32 131.293 C 231.32 129.347 229.744 127.774 227.793 127.774 C 225.843 127.774 224.267 129.347 224.267 131.293 C 224.267 133.239 225.843 134.811 227.793 134.811 Z M 216.985 141.003 C 200.759 141.003 197.747 134.881 197.243 131.892 C 197.068 131.612 196.941 131.306 196.877 130.984 C 193.696 116.408 185.481 111.638 163.75 111.638 C 139.369 111.638 136.454 120.118 136.454 126.478 C 136.454 134.164 139.899 136.549 172.761 140.789 C 205.357 145.029 220.728 151.124 220.728 173.915 C 220.463 197.236 201.382 210.487 167.725 210.487 C 121.349 210.487 111.808 189.286 111.808 171.265 C 111.808 169.675 113.133 168.085 114.988 168.085 L 128.769 168.085 C 130.359 168.085 131.684 169.145 131.684 170.735 C 133.804 184.781 139.899 191.671 167.99 191.671 C 190.251 191.671 199.792 186.636 199.792 174.71 C 199.792 167.82 197.142 162.785 162.425 159.34 C 133.539 156.425 115.518 150.064 115.518 127.009 C 115.518 105.543 133.539 92.822 163.75 92.822 C 194.424 92.822 211.012 102.357 215.475 122.993 L 215.783 123.256 L 236.22 122.908 L 236.243 132.115 C 236.243 132.115 237.526 141.003 216.985 141.003 Z" style="paint-order: fill; fill: rgb(255, 195, 49);"/>
  <path d="M 334.679 211.261 L 334.679 193.581 C 334.692 190.823 335.411 188.679 336.474 187.134 C 337.545 185.575 339.02 184.513 340.426 183.847 C 343.256 182.505 345.957 182.547 346.103 182.548 L 365.542 182.548 C 368.378 182.561 370.396 181.88 371.946 180.844 C 373.479 179.819 374.444 178.499 375.106 177.11 C 376.422 174.352 376.33 171.602 376.33 171.602 L 376.33 161.506 L 376.83 161.506 L 383.645 161.507 C 383.645 161.507 386.734 161.329 389.734 163.841 C 392.668 166.298 395.649 171.488 395.649 181.952 C 395.649 192.433 392.219 197.453 388.856 199.717 C 385.436 202.02 382.348 201.675 381.982 201.643 L 355.119 201.643 L 355.119 203.408 L 374.719 203.408 L 374.743 213.093 L 374.741 213.079 C 374.769 213.391 374.892 215.715 372.668 217.915 C 370.361 220.196 365.36 222.503 354.985 222.503 C 344.133 222.503 338.978 219.717 336.651 216.969 C 334.26 214.146 334.637 211.655 334.679 211.261 Z M 335.679 211.329 L 335.673 211.365 C 335.673 211.365 335.268 213.788 337.414 216.322 C 339.623 218.932 344.371 221.503 354.985 221.503 C 365.151 221.503 369.779 219.366 371.965 217.203 C 374.069 215.123 373.748 213.186 373.748 213.186 L 373.743 213.161 L 373.721 204.408 L 354.119 204.408 L 354.119 200.643 L 382.034 200.643 L 382.061 200.646 C 382.061 200.646 385.146 201.01 388.298 198.887 C 391.507 196.726 394.649 192.15 394.649 181.952 C 394.649 171.737 391.894 166.954 389.092 164.608 C 386.356 162.317 383.709 162.505 383.709 162.505 L 377.33 162.506 L 377.33 171.596 C 377.334 171.789 377.423 174.575 376.009 177.54 C 375.306 179.013 374.177 180.555 372.501 181.675 C 370.841 182.785 368.535 183.535 365.542 183.548 L 346.101 183.548 C 346.101 183.548 343.485 183.503 340.854 184.75 C 339.53 185.378 338.274 186.281 337.298 187.701 C 336.312 189.135 335.666 190.985 335.679 193.581 Z M 365.793 216.311 C 364.716 216.311 363.647 215.835 362.946 215.136 C 362.245 214.436 361.767 213.368 361.767 212.293 C 361.767 211.218 362.245 210.149 362.946 209.45 C 363.646 208.75 364.716 208.274 365.793 208.274 C 366.87 208.274 367.94 208.75 368.641 209.45 C 369.342 210.149 369.82 211.218 369.82 212.293 C 369.82 213.368 369.342 214.436 368.641 215.136 C 367.94 215.835 366.87 216.311 365.793 216.311 Z M 367.935 214.428 C 368.51 213.855 368.82 213.164 368.82 212.293 C 368.82 211.422 368.51 210.731 367.935 210.158 C 367.36 209.584 366.667 209.274 365.793 209.274 C 364.92 209.274 364.227 209.584 363.652 210.158 C 363.077 210.731 362.767 211.422 362.767 212.293 C 362.767 213.164 363.077 213.855 363.652 214.428 C 364.226 215.001 364.92 215.311 365.793 215.311 C 366.667 215.311 367.36 215.001 367.935 214.428 Z" style="fill: none;"/>
  <path d="M 334.679 211.261 L 334.679 193.581 C 334.692 190.823 335.411 188.679 336.474 187.134 C 337.545 185.575 339.02 184.513 340.426 183.847 C 343.256 182.505 345.957 182.547 346.103 182.548 L 365.542 182.548 C 368.378 182.561 370.396 181.88 371.946 180.844 C 373.479 179.819 374.444 178.499 375.106 177.11 C 376.422 174.352 376.33 171.602 376.33 171.602 L 376.33 161.506 L 376.83 161.506 L 383.645 161.507 C 383.645 161.507 386.734 161.329 389.734 163.841 C 392.668 166.298 395.649 171.488 395.649 181.952 C 395.649 192.433 392.219 197.453 388.856 199.717 C 385.436 202.02 382.348 201.675 381.982 201.643 L 355.119 201.643 L 355.119 203.408 L 374.719 203.408 L 374.743 213.093 L 374.741 213.079 C 374.769 213.391 374.892 215.715 372.668 217.915 C 370.361 220.196 365.36 222.503 354.985 222.503 C 344.133 222.503 338.978 219.717 336.651 216.969 C 334.26 214.146 334.637 211.655 334.679 211.261 Z M 335.679 211.329 L 335.673 211.365 C 335.673 211.365 335.268 213.788 337.414 216.322 C 339.623 218.932 344.371 221.503 354.985 221.503 C 365.151 221.503 369.779 219.366 371.965 217.203 C 374.069 215.123 373.748 213.186 373.748 213.186 L 373.743 213.161 L 373.721 204.408 L 354.119 204.408 L 354.119 200.643 L 382.034 200.643 L 382.061 200.646 C 382.061 200.646 385.146 201.01 388.298 198.887 C 391.507 196.726 394.649 192.15 394.649 181.952 C 394.649 171.737 391.894 166.954 389.092 164.608 C 386.356 162.317 383.709 162.505 383.709 162.505 L 377.33 162.506 L 377.33 171.596 C 377.334 171.789 377.423 174.575 376.009 177.54 C 375.306 179.013 374.177 180.555 372.501 181.675 C 370.841 182.785 368.535 183.535 365.542 183.548 L 346.101 183.548 C 346.101 183.548 343.485 183.503 340.854 184.75 C 339.53 185.378 338.274 186.281 337.298 187.701 C 336.312 189.135 335.666 190.985 335.679 193.581 Z M 365.793 216.311 C 364.716 216.311 363.647 215.835 362.946 215.136 C 362.245 214.436 361.767 213.368 361.767 212.293 C 361.767 211.218 362.245 210.149 362.946 209.45 C 363.646 208.75 364.716 208.274 365.793 208.274 C 366.87 208.274 367.94 208.75 368.641 209.45 C 369.342 210.149 369.82 211.218 369.82 212.293 C 369.82 213.368 369.342 214.436 368.641 215.136 C 367.94 215.835 366.87 216.311 365.793 216.311 Z M 367.935 214.428 C 368.51 213.855 368.82 213.164 368.82 212.293 C 368.82 211.422 368.51 210.731 367.935 210.158 C 367.36 209.584 366.667 209.274 365.793 209.274 C 364.92 209.274 364.227 209.584 363.652 210.158 C 363.077 210.731 362.767 211.422 362.767 212.293 C 362.767 213.164 363.077 213.855 363.652 214.428 C 364.226 215.001 364.92 215.311 365.793 215.311 C 366.667 215.311 367.36 215.001 367.935 214.428 Z" style="fill: none;"/>
</svg>