<?xml version="1.0" encoding="utf-8"?>
<svg viewBox="0 0 1106 316" xmlns="http://www.w3.org/2000/svg">
  <defs>
    <linearGradient x1="12.9593594%" y1="12.0393928%" x2="79.6388325%" y2="78.2008538%" id="linearGradient-1">
      <stop stop-color="#387EB8" offset="0"/>
      <stop stop-color="#366994" offset="1"/>
    </linearGradient>
    <linearGradient x1="19.127525%" y1="20.5791813%" x2="90.7415328%" y2="88.4290372%" id="linearGradient-2">
      <stop stop-color="#FFE052" offset="0"/>
      <stop stop-color="#FFC331" offset="1"/>
    </linearGradient>
  </defs>
  <g transform="matrix(1, 0, 0, 1, 20.888229, 16.641119)">
    <path d="M127.999999,288.463771 C124.024844,288.463771 120.314699,287.403728 116.869564,285.548656 L81.6231884,264.612838 C76.32298,261.697724 78.9730854,260.637682 80.5631458,260.107661 C87.7184259,257.72257 89.0434775,257.192547 96.4637688,252.952381 C97.2587979,252.422361 98.3188405,252.687372 99.1138718,253.217392 L126.144927,269.383024 C127.20497,269.913045 128.530021,269.913045 129.325053,269.383024 L235.064182,208.165634 C236.124225,207.635611 236.654245,206.575571 236.654245,205.250519 L236.654245,83.0807467 C236.654245,81.7556929 236.124225,80.6956526 235.064182,80.1656324 L129.325053,19.2132506 C128.26501,18.6832305 126.939959,18.6832305 126.144927,19.2132506 L20.4057954,80.1656324 C19.3457551,80.6956526 18.8157349,82.0207041 18.8157349,83.0807467 L18.8157349,205.250519 C18.8157349,206.31056 19.3457551,207.635611 20.4057954,208.165634 L49.2919247,224.861286 C64.9275364,232.811595 74.7329196,223.536234 74.7329196,214.260871 L74.7329196,93.681159 C74.7329196,92.0910985 76.0579711,90.5010358 77.9130428,90.5010358 L91.4285716,90.5010358 C93.0186343,90.5010358 94.6086948,91.8260873 94.6086948,93.681159 L94.6086948,214.260871 C94.6086948,235.196689 83.2132512,247.387164 63.3374737,247.387164 C57.2422362,247.387164 52.4720502,247.387164 38.9565214,240.761906 L11.1304347,224.861286 C4.24016581,220.886129 5.68434189e-14,213.46584 5.68434189e-14,205.515528 L5.68434189e-14,83.3457557 C5.68434189e-14,75.3954465 4.24016581,67.9751552 11.1304347,64.0000006 L116.869564,2.78260752 C123.494824,-0.927535841 132.505176,-0.927535841 139.130436,2.78260752 L244.869565,64.0000006 C251.759834,67.9751552 256,75.3954465 256,83.3457557 L256,205.515528 C256,213.46584 251.759834,220.886129 244.869565,224.861286 L139.130436,286.078676 C135.685299,287.668739 131.710145,288.463771 127.999999,288.463771 L127.999999,288.463771 Z M160.596274,204.455488 C114.219461,204.455488 104.679089,183.254659 104.679089,165.233955 C104.679089,163.643893 106.004141,162.053832 107.859212,162.053832 L121.639752,162.053832 C123.229813,162.053832 124.554864,163.113872 124.554864,164.703935 C126.674947,178.749484 132.770187,185.639753 160.861283,185.639753 C183.122154,185.639753 192.662526,180.604556 192.662526,168.67909 C192.662526,161.788821 190.012423,156.753624 155.296065,153.308489 C126.409938,150.393375 108.389235,144.033126 108.389235,120.977226 C108.389235,99.5113875 126.409938,86.7908901 156.621119,86.7908901 C190.542443,86.7908901 207.238095,98.4513472 209.358178,123.89234 C209.358178,124.687371 209.093167,125.482403 208.563147,126.277434 C208.033127,126.807454 207.238095,127.337474 206.443064,127.337474 L192.662526,127.337474 C191.337475,127.337474 190.012423,126.277434 189.747412,124.952382 C186.567289,110.376813 178.351966,105.606625 156.621119,105.606625 C132.240165,105.606625 129.325053,114.086957 129.325053,120.447205 C129.325053,128.132506 132.770187,130.5176 165.631471,134.757766 C198.227744,138.997931 213.598344,145.093169 213.598344,167.884058 C213.333333,191.20497 194.252589,204.455488 160.596274,204.455488 L160.596274,204.455488 Z" fill="#539E43"/>
  </g>
  <g transform="matrix(1, 0, 0, 1, 422.016174, 27.860853)">
    <path d="M126.915866,0.0722755491 C62.0835831,0.0722801733 66.1321288,28.1874648 66.1321288,28.1874648 L66.2044043,57.3145115 L128.072276,57.3145115 L128.072276,66.0598532 L41.6307171,66.0598532 C41.6307171,66.0598532 0.144551098,61.3549438 0.144551098,126.771315 C0.144546474,192.187673 36.3546019,189.867871 36.3546019,189.867871 L57.9649915,189.867871 L57.9649915,159.51214 C57.9649915,159.51214 56.8001363,123.302089 93.5968379,123.302089 L154.95878,123.302089 C154.95878,123.302089 189.434218,123.859386 189.434218,89.9830604 L189.434218,33.9695088 C189.434218,33.9695041 194.668541,0.0722755491 126.915866,0.0722755491 L126.915866,0.0722755491 L126.915866,0.0722755491 Z M92.8018069,19.6589497 C98.9572068,19.6589452 103.932242,24.6339846 103.932242,30.7893845 C103.932246,36.9447844 98.9572068,41.9198193 92.8018069,41.9198193 C86.646407,41.9198239 81.6713721,36.9447844 81.6713721,30.7893845 C81.6713674,24.6339846 86.646407,19.6589497 92.8018069,19.6589497 L92.8018069,19.6589497 L92.8018069,19.6589497 Z" fill="url(#linearGradient-1)"/>
    <path d="M128.757101,254.126271 C193.589403,254.126271 189.540839,226.011081 189.540839,226.011081 L189.468564,196.884035 L127.600692,196.884035 L127.600692,188.138693 L214.042251,188.138693 C214.042251,188.138693 255.528417,192.843589 255.528417,127.427208 C255.52844,62.0108566 219.318366,64.3306589 219.318366,64.3306589 L197.707976,64.3306589 L197.707976,94.6863832 C197.707976,94.6863832 198.87285,130.896434 162.07613,130.896434 L100.714182,130.896434 C100.714182,130.896434 66.238745,130.339138 66.238745,164.215486 L66.238745,220.229038 C66.238745,220.229038 61.0044225,254.126271 128.757101,254.126271 L128.757101,254.126271 L128.757101,254.126271 Z M162.87116,234.539597 C156.715759,234.539597 151.740726,229.564564 151.740726,223.409162 C151.740726,217.253759 156.715759,212.278727 162.87116,212.278727 C169.026563,212.278727 174.001595,217.253759 174.001595,223.409162 C174.001618,229.564564 169.026563,234.539597 162.87116,234.539597 L162.87116,234.539597 L162.87116,234.539597 Z" fill="url(#linearGradient-2)"/>
  </g>
  <g transform="matrix(1, 0, 0, 1, 508.614322, 186.018538)">
    <path d="M 160.596 204.955 C 137.319 204.955 123.158 199.586 114.907 191.97 C 106.623 184.323 104.179 174.303 104.179 165.234 C 104.179 164.343 104.586 163.365 105.21 162.704 C 105.832 162.046 106.82 161.58 107.859 161.554 L 121.64 161.554 C 122.52 161.569 123.425 161.883 124.023 162.406 C 124.624 162.932 125.014 163.766 125.053 164.655 C 126.099 171.623 128.064 176.622 133.243 180.021 C 138.466 183.448 146.865 185.14 160.861 185.14 C 171.953 185.14 179.779 183.901 184.875 181.19 C 189.924 178.504 192.163 174.519 192.163 168.679 C 192.163 166.982 192.011 165.501 191.264 164.089 C 190.509 162.662 189.206 161.389 186.771 160.147 C 181.823 157.624 172.573 155.524 155.246 153.806 C 140.779 152.345 128.942 150.005 120.754 145.125 C 112.539 140.229 107.889 132.636 107.889 120.977 C 107.889 110.128 112.513 101.355 120.887 95.426 C 129.24 89.512 141.452 86.291 156.621 86.291 C 173.638 86.291 186.446 89.243 195.202 95.392 C 203.978 101.555 208.772 111.08 209.858 123.892 C 209.845 124.766 209.538 125.7 208.979 126.555 L 208.952 126.596 L 208.917 126.631 C 208.349 127.192 207.377 127.795 206.443 127.837 L 192.662 127.837 C 191.907 127.82 191.08 127.507 190.492 127.03 C 189.905 126.553 189.428 125.811 189.259 125.059 C 187.698 117.845 184.951 113.199 179.889 110.246 C 174.799 107.277 167.447 106.107 156.621 106.107 C 144.505 106.107 137.843 108.176 134.136 111.038 C 130.49 113.852 129.825 117.315 129.825 120.447 C 129.825 122.335 130.019 123.784 130.804 125.069 C 131.595 126.365 132.926 127.416 135.349 128.433 C 140.268 130.5 149.278 132.144 165.696 134.262 C 182.014 136.386 194.113 138.992 202.102 143.939 C 210.126 148.908 214.069 156.377 214.098 167.89 C 213.937 179.664 209.009 189.033 199.903 195.326 C 190.821 201.604 177.485 204.955 160.596 204.955 Z M 199.335 194.504 C 208.25 188.342 212.994 179.426 213.098 167.881 C 213.127 156.605 209.385 149.626 201.575 144.789 C 193.729 139.931 181.845 137.37 165.567 135.254 C 149.124 133.132 139.98 131.463 134.962 129.355 C 132.416 128.286 130.832 127.034 129.95 125.59 C 129.061 124.133 128.825 122.402 128.825 120.447 C 128.825 117.219 129.618 113.262 133.525 110.246 C 137.37 107.278 144.356 105.107 156.621 105.107 C 167.526 105.107 175.147 106.322 180.393 109.382 C 185.666 112.458 188.617 117.484 190.236 124.846 C 190.331 125.419 190.65 125.87 191.123 126.254 C 191.595 126.638 192.093 126.855 192.663 126.837 L 206.443 126.837 C 207.099 126.879 207.683 126.457 208.175 125.958 C 208.656 125.24 208.866 124.623 208.859 123.917 C 207.822 111.298 203.211 102.238 194.628 96.21 C 186.026 90.169 173.526 87.291 156.621 87.291 C 141.579 87.291 129.675 90.43 121.465 96.242 C 113.276 102.04 108.889 110.361 108.889 120.977 C 108.889 132.375 113.25 139.489 121.266 144.266 C 129.31 149.06 140.926 151.357 155.346 152.811 C 172.734 154.539 182.168 156.678 187.225 159.256 C 189.792 160.566 191.321 162.059 192.148 163.621 C 192.983 165.199 193.163 166.931 193.163 168.679 C 193.163 174.764 190.631 179.26 185.345 182.073 C 180.105 184.861 172.031 186.14 160.861 186.14 C 146.766 186.14 138.073 184.386 132.695 180.857 C 127.274 177.299 125.135 171.855 124.06 164.779 L 124.054 164.734 L 124.055 164.704 C 124.081 164.021 123.823 163.56 123.364 163.159 C 122.902 162.755 122.349 162.539 121.64 162.554 L 107.859 162.554 C 107.043 162.527 106.441 162.857 105.937 163.391 C 105.435 163.923 105.179 164.535 105.179 165.234 C 105.179 174.185 107.505 183.776 115.586 191.235 C 123.699 198.724 137.496 203.955 160.596 203.955 C 177.364 203.955 190.397 200.682 199.335 194.504 Z" style="fill: none;"/>
    <path d="M 160.596 204.955 C 137.319 204.955 123.158 199.586 114.907 191.97 C 106.623 184.323 104.179 174.303 104.179 165.234 C 104.179 164.343 104.586 163.365 105.21 162.704 C 105.832 162.046 106.82 161.58 107.859 161.554 L 121.64 161.554 C 122.52 161.569 123.425 161.883 124.023 162.406 C 124.624 162.932 125.014 163.766 125.053 164.655 C 126.099 171.623 128.064 176.622 133.243 180.021 C 138.466 183.448 146.865 185.14 160.861 185.14 C 171.953 185.14 179.779 183.901 184.875 181.19 C 189.924 178.504 192.163 174.519 192.163 168.679 C 192.163 166.982 192.011 165.501 191.264 164.089 C 190.509 162.662 189.206 161.389 186.771 160.147 C 181.823 157.624 172.573 155.524 155.246 153.806 C 140.779 152.345 128.942 150.005 120.754 145.125 C 112.539 140.229 107.889 132.636 107.889 120.977 C 107.889 110.128 112.513 101.355 120.887 95.426 C 129.24 89.512 141.452 86.291 156.621 86.291 C 173.638 86.291 186.446 89.243 195.202 95.392 C 203.978 101.555 208.772 111.08 209.858 123.892 C 209.845 124.766 209.538 125.7 208.979 126.555 L 208.952 126.596 L 208.917 126.631 C 208.349 127.192 207.377 127.795 206.443 127.837 L 192.662 127.837 C 191.907 127.82 191.08 127.507 190.492 127.03 C 189.905 126.553 189.428 125.811 189.259 125.059 C 187.698 117.845 184.951 113.199 179.889 110.246 C 174.799 107.277 167.447 106.107 156.621 106.107 C 144.505 106.107 137.843 108.176 134.136 111.038 C 130.49 113.852 129.825 117.315 129.825 120.447 C 129.825 122.335 130.019 123.784 130.804 125.069 C 131.595 126.365 132.926 127.416 135.349 128.433 C 140.268 130.5 149.278 132.144 165.696 134.262 C 182.014 136.386 194.113 138.992 202.102 143.939 C 210.126 148.908 214.069 156.377 214.098 167.89 C 213.937 179.664 209.009 189.033 199.903 195.326 C 190.821 201.604 177.485 204.955 160.596 204.955 Z M 199.335 194.504 C 208.25 188.342 212.994 179.426 213.098 167.881 C 213.127 156.605 209.385 149.626 201.575 144.789 C 193.729 139.931 181.845 137.37 165.567 135.254 C 149.124 133.132 139.98 131.463 134.962 129.355 C 132.416 128.286 130.832 127.034 129.95 125.59 C 129.061 124.133 128.825 122.402 128.825 120.447 C 128.825 117.219 129.618 113.262 133.525 110.246 C 137.37 107.278 144.356 105.107 156.621 105.107 C 167.526 105.107 175.147 106.322 180.393 109.382 C 185.666 112.458 188.617 117.484 190.236 124.846 C 190.331 125.419 190.65 125.87 191.123 126.254 C 191.595 126.638 192.093 126.855 192.663 126.837 L 206.443 126.837 C 207.099 126.879 207.683 126.457 208.175 125.958 C 208.656 125.24 208.866 124.623 208.859 123.917 C 207.822 111.298 203.211 102.238 194.628 96.21 C 186.026 90.169 173.526 87.291 156.621 87.291 C 141.579 87.291 129.675 90.43 121.465 96.242 C 113.276 102.04 108.889 110.361 108.889 120.977 C 108.889 132.375 113.25 139.489 121.266 144.266 C 129.31 149.06 140.926 151.357 155.346 152.811 C 172.734 154.539 182.168 156.678 187.225 159.256 C 189.792 160.566 191.321 162.059 192.148 163.621 C 192.983 165.199 193.163 166.931 193.163 168.679 C 193.163 174.764 190.631 179.26 185.345 182.073 C 180.105 184.861 172.031 186.14 160.861 186.14 C 146.766 186.14 138.073 184.386 132.695 180.857 C 127.274 177.299 125.135 171.855 124.06 164.779 L 124.054 164.734 L 124.055 164.704 C 124.081 164.021 123.823 163.56 123.364 163.159 C 122.902 162.755 122.349 162.539 121.64 162.554 L 107.859 162.554 C 107.043 162.527 106.441 162.857 105.937 163.391 C 105.435 163.923 105.179 164.535 105.179 165.234 C 105.179 174.185 107.505 183.776 115.586 191.235 C 123.699 198.724 137.496 203.955 160.596 203.955 C 177.364 203.955 190.397 200.682 199.335 194.504 Z" style="fill: none;"/>
  </g>
  <path d="M 883.498 115.353 L 883.475 106.146 C 883.475 106.146 882.192 97.258 902.732 97.258 C 915.908 97.258 920.372 101.296 921.854 104.414 C 922.388 104.968 922.736 105.721 922.736 106.589 L 922.736 227.169 C 922.736 248.105 911.34 260.295 891.465 260.295 C 885.369 260.295 880.599 260.295 867.084 253.67 L 839.258 237.77 C 832.367 233.794 828.127 226.374 828.127 218.424 L 828.127 96.254 C 828.127 88.304 832.367 80.883 839.258 76.908 L 944.997 15.691 C 951.622 11.981 960.632 11.981 967.258 15.691 L 1072.997 76.908 C 1079.887 80.883 1084.127 88.304 1084.127 96.254 L 1084.127 218.424 C 1084.127 226.374 1079.887 233.794 1072.997 237.77 L 967.258 298.987 C 963.812 300.577 959.837 301.372 956.127 301.372 C 952.152 301.372 948.442 300.312 944.997 298.457 L 909.75 277.521 C 904.45 274.606 907.1 273.546 908.69 273.016 C 915.846 270.631 917.171 270.101 924.591 265.861 C 925.386 265.331 926.446 265.596 927.241 266.126 L 954.272 282.291 C 955.332 282.821 956.657 282.821 957.452 282.291 L 1063.191 221.074 C 1064.251 220.544 1064.781 219.484 1064.781 218.159 L 1064.781 95.989 C 1064.781 94.664 1064.251 93.604 1063.191 93.074 L 957.452 32.122 C 956.392 31.592 955.067 31.592 954.272 32.122 L 848.533 93.074 C 847.473 93.604 846.943 94.929 846.943 95.989 L 846.943 218.159 C 846.943 219.219 847.473 220.544 848.533 221.074 L 877.419 237.77 C 893.055 245.72 902.86 236.445 902.86 227.169 L 902.86 115.353 Z M 888.398 106.968 C 888.398 108.914 889.974 110.487 891.924 110.487 C 893.875 110.487 895.451 108.914 895.451 106.968 C 895.451 105.022 893.875 103.45 891.924 103.45 C 889.974 103.45 888.398 105.022 888.398 106.968 Z" style="fill: rgb(54, 105, 148);"/>
  <path d="M 1048.791 141.688 C 1050.742 141.688 1052.318 140.116 1052.318 138.17 C 1052.318 136.224 1050.742 134.651 1048.791 134.651 C 1046.841 134.651 1045.265 136.224 1045.265 138.17 C 1045.265 140.116 1046.841 141.688 1048.791 141.688 Z M 1037.983 147.88 C 1021.757 147.88 1018.745 141.758 1018.241 138.769 C 1018.066 138.489 1017.939 138.183 1017.875 137.861 C 1014.694 123.285 1006.479 118.515 984.748 118.515 C 960.367 118.515 957.452 126.995 957.452 133.355 C 957.452 141.041 960.897 143.426 993.759 147.666 C 1026.355 151.906 1041.726 158.001 1041.726 180.792 C 1041.461 204.113 1022.38 217.364 988.723 217.364 C 942.347 217.364 932.806 196.163 932.806 178.142 C 932.806 176.552 934.131 174.962 935.986 174.962 L 949.767 174.962 C 951.357 174.962 952.682 176.022 952.682 177.612 C 954.802 191.658 960.897 198.548 988.988 198.548 C 1011.249 198.548 1020.79 193.513 1020.79 181.587 C 1020.79 174.697 1018.14 169.662 983.423 166.217 C 954.537 163.302 936.516 156.941 936.516 133.886 C 936.516 112.42 954.537 99.699 984.748 99.699 C 1015.422 99.699 1032.01 109.234 1036.473 129.87 L 1036.781 130.133 L 1057.218 129.785 L 1057.241 138.992 C 1057.241 138.992 1058.524 147.88 1037.983 147.88 Z" style="paint-order: fill; fill: rgb(255, 195, 49);"/>
  <path d="M 993.319 260.628 L 993.319 242.948 C 993.332 240.19 994.051 238.046 995.114 236.501 C 996.185 234.942 997.66 233.88 999.066 233.214 C 1001.896 231.872 1004.597 231.914 1004.743 231.915 L 1024.182 231.915 C 1027.018 231.928 1029.036 231.247 1030.586 230.211 C 1032.119 229.186 1033.084 227.866 1033.746 226.477 C 1035.062 223.719 1034.97 220.969 1034.97 220.969 L 1034.97 210.873 L 1035.47 210.873 L 1042.285 210.874 C 1042.285 210.874 1045.374 210.696 1048.374 213.208 C 1051.308 215.665 1054.289 220.855 1054.289 231.319 C 1054.289 241.8 1050.859 246.82 1047.496 249.084 C 1044.076 251.387 1040.988 251.042 1040.622 251.01 L 1013.759 251.01 L 1013.759 252.775 L 1033.359 252.775 L 1033.383 262.46 L 1033.381 262.446 C 1033.409 262.758 1033.532 265.082 1031.308 267.282 C 1029.001 269.563 1024 271.87 1013.625 271.87 C 1002.773 271.87 997.618 269.084 995.291 266.336 C 992.9 263.513 993.277 261.022 993.319 260.628 Z M 994.319 260.696 L 994.313 260.732 C 994.313 260.732 993.908 263.155 996.054 265.689 C 998.263 268.299 1003.011 270.87 1013.625 270.87 C 1023.791 270.87 1028.419 268.733 1030.605 266.57 C 1032.709 264.49 1032.388 262.553 1032.388 262.553 L 1032.383 262.528 L 1032.361 253.775 L 1012.759 253.775 L 1012.759 250.01 L 1040.674 250.01 L 1040.701 250.013 C 1040.701 250.013 1043.786 250.377 1046.938 248.254 C 1050.147 246.093 1053.289 241.517 1053.289 231.319 C 1053.289 221.104 1050.534 216.321 1047.732 213.975 C 1044.996 211.684 1042.349 211.872 1042.349 211.872 L 1035.97 211.873 L 1035.97 220.963 C 1035.974 221.156 1036.063 223.942 1034.649 226.907 C 1033.946 228.38 1032.817 229.922 1031.141 231.042 C 1029.481 232.152 1027.175 232.902 1024.182 232.915 L 1004.741 232.915 C 1004.741 232.915 1002.125 232.87 999.494 234.117 C 998.17 234.745 996.914 235.648 995.938 237.068 C 994.952 238.502 994.306 240.352 994.319 242.948 Z M 1024.433 265.678 C 1023.356 265.678 1022.287 265.202 1021.586 264.503 C 1020.885 263.803 1020.407 262.735 1020.407 261.66 C 1020.407 260.585 1020.885 259.516 1021.586 258.817 C 1022.286 258.117 1023.356 257.641 1024.433 257.641 C 1025.51 257.641 1026.58 258.117 1027.281 258.817 C 1027.982 259.516 1028.46 260.585 1028.46 261.66 C 1028.46 262.735 1027.982 263.803 1027.281 264.503 C 1026.58 265.202 1025.51 265.678 1024.433 265.678 Z M 1026.575 263.795 C 1027.15 263.222 1027.46 262.531 1027.46 261.66 C 1027.46 260.789 1027.15 260.098 1026.575 259.525 C 1026 258.951 1025.307 258.641 1024.433 258.641 C 1023.56 258.641 1022.867 258.951 1022.292 259.525 C 1021.717 260.098 1021.407 260.789 1021.407 261.66 C 1021.407 262.531 1021.717 263.222 1022.292 263.795 C 1022.866 264.368 1023.56 264.678 1024.433 264.678 C 1025.307 264.678 1026 264.368 1026.575 263.795 Z" style="fill: none;" transform="matrix(1, 0, 0, 1, -294.154965, 50.619948)"/>
  <path d="M 993.319 260.628 L 993.319 242.948 C 993.332 240.19 994.051 238.046 995.114 236.501 C 996.185 234.942 997.66 233.88 999.066 233.214 C 1001.896 231.872 1004.597 231.914 1004.743 231.915 L 1024.182 231.915 C 1027.018 231.928 1029.036 231.247 1030.586 230.211 C 1032.119 229.186 1033.084 227.866 1033.746 226.477 C 1035.062 223.719 1034.97 220.969 1034.97 220.969 L 1034.97 210.873 L 1035.47 210.873 L 1042.285 210.874 C 1042.285 210.874 1045.374 210.696 1048.374 213.208 C 1051.308 215.665 1054.289 220.855 1054.289 231.319 C 1054.289 241.8 1050.859 246.82 1047.496 249.084 C 1044.076 251.387 1040.988 251.042 1040.622 251.01 L 1013.759 251.01 L 1013.759 252.775 L 1033.359 252.775 L 1033.383 262.46 L 1033.381 262.446 C 1033.409 262.758 1033.532 265.082 1031.308 267.282 C 1029.001 269.563 1024 271.87 1013.625 271.87 C 1002.773 271.87 997.618 269.084 995.291 266.336 C 992.9 263.513 993.277 261.022 993.319 260.628 Z M 994.319 260.696 L 994.313 260.732 C 994.313 260.732 993.908 263.155 996.054 265.689 C 998.263 268.299 1003.011 270.87 1013.625 270.87 C 1023.791 270.87 1028.419 268.733 1030.605 266.57 C 1032.709 264.49 1032.388 262.553 1032.388 262.553 L 1032.383 262.528 L 1032.361 253.775 L 1012.759 253.775 L 1012.759 250.01 L 1040.674 250.01 L 1040.701 250.013 C 1040.701 250.013 1043.786 250.377 1046.938 248.254 C 1050.147 246.093 1053.289 241.517 1053.289 231.319 C 1053.289 221.104 1050.534 216.321 1047.732 213.975 C 1044.996 211.684 1042.349 211.872 1042.349 211.872 L 1035.97 211.873 L 1035.97 220.963 C 1035.974 221.156 1036.063 223.942 1034.649 226.907 C 1033.946 228.38 1032.817 229.922 1031.141 231.042 C 1029.481 232.152 1027.175 232.902 1024.182 232.915 L 1004.741 232.915 C 1004.741 232.915 1002.125 232.87 999.494 234.117 C 998.17 234.745 996.914 235.648 995.938 237.068 C 994.952 238.502 994.306 240.352 994.319 242.948 Z M 1024.433 265.678 C 1023.356 265.678 1022.287 265.202 1021.586 264.503 C 1020.885 263.803 1020.407 262.735 1020.407 261.66 C 1020.407 260.585 1020.885 259.516 1021.586 258.817 C 1022.286 258.117 1023.356 257.641 1024.433 257.641 C 1025.51 257.641 1026.58 258.117 1027.281 258.817 C 1027.982 259.516 1028.46 260.585 1028.46 261.66 C 1028.46 262.735 1027.982 263.803 1027.281 264.503 C 1026.58 265.202 1025.51 265.678 1024.433 265.678 Z M 1026.575 263.795 C 1027.15 263.222 1027.46 262.531 1027.46 261.66 C 1027.46 260.789 1027.15 260.098 1026.575 259.525 C 1026 258.951 1025.307 258.641 1024.433 258.641 C 1023.56 258.641 1022.867 258.951 1022.292 259.525 C 1021.717 260.098 1021.407 260.789 1021.407 261.66 C 1021.407 262.531 1021.717 263.222 1022.292 263.795 C 1022.866 264.368 1023.56 264.678 1024.433 264.678 C 1025.307 264.678 1026 264.368 1026.575 263.795 Z" style="fill: none;" transform="matrix(1, 0, 0, 1, -294.154965, 50.619948)"/>
  <path d="M 339.54 179.942 L 339.645 164.132 L 319.201 164.124 L 319.174 164.12 L 319.144 164.116 C 317.597 163.895 315.28 162.72 313.975 161.531 L 313.932 161.485 L 313.896 161.43 L 313.813 161.299 L 313.791 161.264 C 313.049 160.028 312.38 157.931 312.38 156.333 C 312.38 153.453 313.782 150.062 315.355 148.174 L 315.37 148.156 L 315.402 148.128 C 317.271 146.505 320.543 145.173 323.4 145.173 C 333.005 145.173 333.833 145.164 335.821 145.148 L 339.753 145.116 L 339.762 144.133 L 339.789 141.184 C 339.809 138.861 339.82 137.655 339.82 129.173 C 339.82 126.119 341.5 122.575 343.383 120.658 L 343.415 120.624 L 343.467 120.587 C 345.557 119.038 349.09 117.997 352.187 117.873 L 353.121 117.873 L 353.343 117.925 L 353.487 117.959 L 353.662 118.007 C 354.696 118.353 356.255 119.277 357.153 120.098 L 357.229 120.172 L 357.232 120.176 L 357.334 120.318 C 358.115 121.452 358.92 123.499 358.92 124.973 C 358.92 136.746 358.91 138.16 358.889 140.813 L 358.857 144.865 L 379.69 144.768 L 379.484 144.745 L 379.591 144.757 C 379.626 144.76 379.662 144.764 379.698 144.768 L 379.788 144.779 C 381.123 144.953 383.068 145.701 384.195 146.45 L 384.268 146.502 L 384.285 146.52 L 384.33 146.566 L 384.416 146.659 C 385.281 147.645 386.147 149.523 386.482 150.714 L 386.5 150.817 L 386.498 151.684 C 386.404 154.79 385.419 158.199 384.069 160.283 L 384.056 160.303 L 384.119 160.236 L 384.061 160.298 L 384.024 160.338 C 382.185 162.358 378.573 163.868 375.764 164.133 L 358.702 164.133 L 358.67 168.101 C 358.65 170.474 358.64 171.698 358.64 181.113 C 358.64 183.959 357.052 187.349 355.33 189.173 L 355.307 189.197 L 355.256 189.236 C 353.329 190.707 350.097 191.853 347.2 191.853 C 345.627 191.853 343.456 191.101 342.207 190.33 L 342.057 190.23 L 342.001 190.173 L 341.854 190.019 C 340.721 188.73 339.739 186.353 339.543 184.831 L 339.54 184.807 Z M 319.201 164.124 L 319.131 164.124 L 319 166.115 L 319.068 166.124 L 319.334 164.142 Z" transform="matrix(1, 0, 0, 1, 0, 0)" style="white-space: pre; fill: rgb(83, 158, 67);"/>
  <path d="M 726.007 157.891 L 779.368 157.473 C 780.576 157.538 782.377 158.002 783.438 158.563 L 783.685 158.703 L 783.836 158.839 L 783.893 158.889 C 785.004 159.966 786.098 162.2 786.323 163.495 L 786.347 163.673 L 786.347 163.74 L 786.347 164.343 C 786.267 167.462 785.283 170.911 783.938 172.968 L 783.901 173.024 L 783.86 173.069 C 782.031 175.1 778.536 176.641 775.747 176.851 L 721.879 176.847 L 721.823 176.841 L 721.769 176.834 C 720.206 176.615 717.87 175.492 716.675 174.262 L 716.513 174.084 L 716.462 174.002 L 716.409 173.913 L 716.387 173.877 C 715.675 172.671 715.027 170.533 715.027 168.911 C 715.027 166.105 716.21 162.648 717.997 160.861 C 719.814 159.044 723.294 158.007 726.007 157.891 Z" style="white-space: pre; fill: rgb(255, 208, 64);"/>
  <path d="M 726.147 129.631 L 779.605 129.217 C 780.929 129.34 782.994 130.081 784.118 130.861 L 784.255 130.96 L 784.318 131.025 L 784.378 131.087 C 785.251 132.041 786.181 133.892 786.436 134.975 L 786.487 135.276 L 786.487 135.36 L 786.487 136.083 C 786.407 139.202 785.423 142.651 784.078 144.708 L 784.041 144.764 L 784 144.809 C 782.171 146.84 778.675 148.381 775.887 148.591 L 721.983 148.582 L 721.932 148.575 C 720.394 148.371 718.07 147.288 716.873 146.11 L 716.721 145.946 L 716.675 145.876 L 716.613 145.782 L 716.588 145.742 C 715.851 144.546 715.167 142.396 715.167 140.791 C 715.167 137.899 716.552 134.514 718.113 132.665 L 718.156 132.613 L 718.205 132.571 C 720.087 130.945 723.379 129.767 726.147 129.631 Z" style="white-space: pre; fill: rgb(55, 116, 167);"/>
</svg>